<?xml version="1.0" encoding="utf-8"?>
<!-- Generator: Adobe Illustrator 25.2.3, SVG Export Plug-In . SVG Version: 6.00 Build 0)  -->
<svg version="1.1" id="Layer_1" xmlns="http://www.w3.org/2000/svg" xmlns:xlink="http://www.w3.org/1999/xlink" x="0px" y="0px"
	 viewBox="0 0 1051.8 201.2" style="enable-background:new 0 0 1051.8 201.2;" xml:space="preserve">
<style type="text/css">
	.st0{fill:#565556;}
</style>
<g id="XMLID_1_">
	<path id="XMLID_2_" class="st0" d="M164.7,49.9h-35.2h-4.3H90.5v2.9h29c-1.5,0.4-2.9,0.9-4.3,1.5c-4.3,1.9-7.9,4.8-10.9,8.8
		c-2.9,4-5.2,9.2-6.7,15.5c-1.5,6.3-2.2,13.9-2.2,22.7c0,8.9,0.7,16.4,2.2,22.7c0.4,1.6,0.8,3.1,1.3,4.5l-7.1,21.2h3.3l5.6-16.6
		c1.1,2.4,2.3,4.5,3.6,6.4c2.9,4,6.6,7,10.9,8.8c4.3,1.9,9.2,2.8,14.7,2.8c6.6,0,12.3-1.8,16.9-5.3c3.4-2.6,6.1-5.8,8.2-9.7
		l4.5,13.5h3.3l-5.9-17.8c0-0.1,0.1-0.2,0.1-0.3l-0.3-0.1L131,54.2c5.6,0.2,10.3,1.7,14.3,4.7c4.2,3.1,7.3,7.5,9.1,13l2.7-1
		c-2.2-6-5.5-10.7-10.2-14.2c-2.3-1.7-4.9-3-7.7-3.9h25.4V49.9z M98.8,105.8v-8.8c0-14.3,2.6-25,7.9-32.1c4.1-5.5,9.8-8.9,16.9-10.1
		l-23,68.9C99.4,118.5,98.8,112.6,98.8,105.8z M126,56.7v56.9h-18.8L126,56.7z M106.8,137.9c-1.9-2.5-3.4-5.5-4.6-8.9l4.2-12.5H126
		v31.8C117.8,147.5,111.3,144,106.8,137.9z M153.8,132.5c-1.9,4.7-4.7,8.5-8.5,11.3c-4.2,3.1-9.3,4.7-15.3,4.7c-0.3,0-0.5,0-0.8,0
		v-32h19.3L153.8,132.5z M129.2,113.6V58.4l18.4,55.2H129.2z"/>
	<g id="XMLID_7_">
		<path id="XMLID_41_" d="M205.5,81v-1.7h28.2V81h-13.2v36.6h-1.8V81H205.5z"/>
		<path id="XMLID_39_" d="M253.5,117.6h-1.8V79.3h1.8v17.5h25.3V79.3h1.7v38.3h-1.7V98.5h-25.3V117.6z"/>
		<path id="XMLID_37_" d="M305.1,115.9h22.8v1.7h-24.6V79.3h24v1.8h-22.2v16.3h18v1.8h-18V115.9z"/>
		<path id="XMLID_34_" d="M376.2,117.6l14.7-38.3h3l14.8,38.3h-1.9l-5-13.2h-18.7l-5.1,13.2H376.2z M392.4,80.2l-8.6,22.4H401
			L392.4,80.2z"/>
		<path id="XMLID_31_" d="M426.8,117.6V79.3h11.2c3.2,0,5.9,0.3,8.1,0.9c2.2,0.6,3.8,1.7,5,3.2c1.1,1.5,1.7,3.7,1.7,6.5
			c0,1.6-0.3,3.1-1,4.6c-0.6,1.5-1.6,2.7-3,3.6c-1.4,0.9-3.1,1.4-5.3,1.4c1.9,0,3.4,0.4,4.5,1.1c1.1,0.7,1.8,1.6,2.3,2.8
			c0.5,1.1,0.7,2.4,0.8,3.7c0.1,1.3,0.1,2.6,0.1,3.9c0,1.3,0,2.4,0.1,3.4c0.1,1,0.4,1.7,0.8,2.1c0.5,0.4,1.2,0.5,2.3,0.1v1.7
			c-1,0.1-1.8,0.1-2.4,0c-0.7-0.2-1.2-0.6-1.7-1.3c-0.5-0.7-0.7-1.8-0.7-3.3c0-3-0.1-5.4-0.3-7.1c-0.2-1.8-0.7-3.1-1.4-3.9
			c-0.7-0.9-1.8-1.4-3.4-1.7c-1.5-0.3-3.5-0.4-6.1-0.4c-2.5,0-5.8,0-9.7,0v17.2H426.8z M428.6,98.7h11c3.9,0,6.7-0.6,8.6-1.9
			c1.9-1.3,2.8-3.6,2.8-6.8c0-2.6-0.5-4.5-1.5-5.7c-1-1.2-2.5-2.1-4.4-2.5c-1.9-0.4-4.3-0.6-7.1-0.6h-9.3V98.7z"/>
		<path id="XMLID_29_" d="M469.6,81v-1.7h28.2V81h-13.2v36.6h-1.8V81H469.6z"/>
		<path id="XMLID_27_" d="M563.2,118.3c-3.4,0-6.5-0.7-9.3-2.2c-2.7-1.5-4.9-3.7-6.5-6.7c-1.6-2.9-2.4-6.6-2.4-10.9
			c0-4.4,0.8-8.1,2.3-11.1c1.5-2.9,3.7-5.1,6.5-6.6c2.8-1.5,6-2.2,9.6-2.2c4.2,0,7.8,1.1,10.8,3.4c3,2.3,5,5.7,5.8,10.4h-1.9
			c-0.7-3.9-2.4-6.9-5-9s-5.8-3.2-9.7-3.2c-5,0-9.1,1.6-12.1,4.7c-3,3.1-4.5,7.6-4.5,13.5c0,6,1.5,10.6,4.5,13.6
			c3,3.1,6.9,4.6,11.9,4.6c4.3,0,7.8-1.1,10.3-3.2c2.6-2.1,4.2-5.1,4.9-8.8h2c-0.9,4.5-2.8,7.9-5.8,10.2
			C571.6,117.1,567.8,118.3,563.2,118.3z"/>
		<path id="XMLID_24_" d="M615.1,118.5c-5.9,0-10.4-1.8-13.5-5.4c-3.1-3.6-4.6-8.5-4.6-14.6c0-4,0.7-7.5,2-10.5c1.3-3,3.3-5.3,6-6.9
			c2.7-1.7,6-2.5,10.1-2.5c5.9,0,10.4,1.8,13.5,5.4c3.1,3.6,4.6,8.4,4.6,14.5c0,3.9-0.7,7.4-2,10.4s-3.4,5.4-6.1,7
			C622.5,117.7,619.1,118.5,615.1,118.5z M615.1,116.8c5.4,0,9.5-1.7,12.2-5c2.7-3.3,4.1-7.8,4.1-13.3c0-5.5-1.3-10-4-13.3
			c-2.7-3.3-6.8-5-12.3-5c-5.3,0-9.4,1.6-12.2,4.8c-2.8,3.2-4.1,7.7-4.1,13.5c0,5.5,1.3,10,4,13.3S609.6,116.8,615.1,116.8z"/>
		<path id="XMLID_22_" d="M651.9,117.6V79.3h3.1l15.8,37.3h0.1l15.6-37.3h3.1v38.3H688V80.7h-0.1l-15.6,36.9h-2.9l-15.6-36.9h-0.1
			v36.9H651.9z"/>
		<path id="XMLID_20_" d="M709.8,117.6V79.3h3.1l15.8,37.3h0.1l15.6-37.3h3.1v38.3h-1.8V80.7h-0.1l-15.6,36.9h-2.9l-15.6-36.9h-0.1
			v36.9H709.8z"/>
		<path id="XMLID_18_" d="M781.6,116v1.6H769V116h5.4V81H769v-1.7h12.6V81h-5.4v35H781.6z"/>
		<path id="XMLID_16_" d="M800.3,81v-1.7h28.2V81h-13.2v36.6h-1.8V81H800.3z"/>
		<path id="XMLID_14_" d="M845.4,81v-1.7h28.2V81h-13.2v36.6h-1.8V81H845.4z"/>
		<path id="XMLID_12_" d="M893.8,115.9h22.8v1.7H892V79.3h24v1.8h-22.2v16.3h18v1.8h-18V115.9z"/>
		<path id="XMLID_9_" d="M938.5,115.9h22.8v1.7h-24.6V79.3h24v1.8h-22.2v16.3h18v1.8h-18V115.9z"/>
	</g>
</g>
</svg>
